<?xml version="1.0" encoding="UTF-8"?>
<svg version="1.1" xmlns="http://www.w3.org/2000/svg" width="131" height="159">
<path d="M0 0 C43.23 0 86.46 0 131 0 C131 52.47 131 104.94 131 159 C87.77 159 44.54 159 0 159 C0 106.53 0 54.06 0 0 Z " fill="#5145E5" transform="translate(0,0)"/>
<path d="M0 0 C43.23 0 86.46 0 131 0 C131 52.47 131 104.94 131 159 C87.77 159 44.54 159 0 159 C0 106.53 0 54.06 0 0 Z M57 5 C58.96154725 20.69237801 62.85007425 35.83138299 75.55859375 46.2578125 C85.22335647 53.15458718 96.73148401 55.06342638 108.13330078 57.50683594 C110 58 110 58 111 59 C109.27716797 59.34611328 109.27716797 59.34611328 107.51953125 59.69921875 C91.59056412 62.99925752 75.65325059 66.75389229 66 81 C59.95669595 91.81804281 57.31945176 103.93915385 55 116 C54.89042969 115.38705078 54.78085937 114.77410156 54.66796875 114.14257812 C50.54065906 90.13308411 50.54065906 90.13308411 36.11328125 71.3125 C26.69815082 65.46502528 16.22536986 60.82527468 5 61 C4.87492764 66.99154337 4.78497631 72.98230089 4.7253418 78.97485352 C4.70044142 81.00656396 4.66650811 83.03818716 4.62280273 85.06958008 C4.19510057 105.48355288 7.57340364 122.26092196 22.0625 137.75 C34.40272104 149.40091714 49.02142619 155.07051067 65.9375 155.375 C71.53499648 155.19916241 76.65808295 154.67418777 82 153 C82.8353125 152.76667969 83.670625 152.53335938 84.53125 152.29296875 C99.0760282 147.71637906 111.26095116 137.49750668 118.3190918 124.03344727 C123.21002648 114.32508328 126.47195697 105.79445715 126.34057617 94.79858398 C126.34101425 93.82191269 126.34145233 92.84524139 126.34190369 91.838974 C126.33982945 88.64113713 126.31656301 85.44383796 126.29296875 82.24609375 C126.28736794 80.01693508 126.28310014 77.7877727 126.28010559 75.55860901 C126.26869505 69.71424013 126.23926052 63.87009775 126.20599365 58.02581787 C126.16979111 51.00144887 126.15611358 43.9770038 126.13863373 36.95256805 C126.10962098 26.30155489 126.05210691 15.65103793 126 5 C103.23 5 80.46 5 57 5 Z " fill="#FCFCFE" transform="translate(0,0)"/>
<path d="M0 0 C16.17 0 32.34 0 49 0 C47.28040922 13.75672622 43.19140801 29.6471958 32.625 39.375 C26.76418977 43.9038079 20.33560595 46.34310108 13.375 48.75 C12.74142578 48.97308838 12.10785156 49.19617676 11.45507812 49.42602539 C7.26131859 50.81901527 4.60557329 51 0 51 C0 34.17 0 17.34 0 0 Z " fill="#5044E5" transform="translate(5,5)"/>
<path d="M0 0 C1.54097286 2.93260034 2.69624592 5.88398861 3.8125 9 C5.54230225 13.2836194 6.81603797 15.72610759 11 18 C14.29679888 19.15970345 17.61531961 20.13247027 21 21 C18.2782338 22.8145108 16.68734363 23.43476859 13.625 24.25 C9.11682381 25.73564897 6.23724067 27.74485598 4 32 C2.78600754 35.28810105 1.82759522 38.5954213 1 42 C-1.78195334 39.21804666 -2.09289724 36.26360751 -3.0234375 32.5078125 C-4.22177604 29.43047913 -5.40003948 28.03969967 -8 26 C-11.24358622 24.66872681 -11.24358622 24.66872681 -14.75 23.75 C-16.50570312 23.24726562 -16.50570312 23.24726562 -18.296875 22.734375 C-19.18890625 22.49203125 -20.0809375 22.2496875 -21 22 C-18.1184733 20.0789822 -16.41336716 19.52961288 -13.125 18.75 C-9.18525205 17.58011851 -6.45244324 16.44197743 -3.9609375 12.9609375 C-1.95358596 8.86463476 -0.9710123 4.4366578 0 0 Z " fill="#F8F7FD" transform="translate(92,81)"/>
</svg>
