<?xml version="1.0" encoding="UTF-8"?>
<svg version="1.1" xmlns="http://www.w3.org/2000/svg" width="388" height="159">
<path d="M0 0 C128.04 0 256.08 0 388 0 C388 52.47 388 104.94 388 159 C259.96 159 131.92 159 0 159 C0 106.53 0 54.06 0 0 Z " fill="#FDFDFD" transform="translate(0,0)"/>
<path d="M0 0 C22.77 0 45.54 0 69 0 C69.24065286 24.31485153 69.24065286 24.31485153 69.29296875 34.765625 C69.3286867 41.8668138 69.37070979 48.9675337 69.45263672 56.06835938 C69.5183469 61.80021262 69.55381434 67.53156227 69.56926346 73.26376343 C69.58025772 75.43883174 69.60172425 77.61387587 69.63438034 79.78872681 C69.9362215 100.74498955 65.39358734 117.81346303 50.6796875 133.54296875 C36.29632529 146.73121194 20.21203259 150.7684813 1 150 C-15.08187049 148.41446347 -29.84600287 139.34945597 -40 127 C-43.04724354 122.52385363 -45.83927127 117.97600127 -48 113 C-48.36625488 112.15928955 -48.73250977 111.3185791 -49.10986328 110.45239258 C-53.13303481 99.60334075 -52.44465536 88.5941206 -52.25 77.1875 C-52.22989569 75.12697057 -52.21165191 73.0664221 -52.1953125 71.00585938 C-52.1516485 66.00342862 -52.08283977 61.00192909 -52 56 C-47.12806889 55.89544844 -43.19743098 56.63962062 -38.625 58.25 C-37.96234131 58.47961426 -37.29968262 58.70922852 -36.61694336 58.94580078 C-31.85922952 60.62733098 -27.265153 62.28322103 -23 65 C-22.34902344 65.40992187 -21.69804688 65.81984375 -21.02734375 66.2421875 C-7.40388586 76.37447025 -4.77958736 95.45066131 -2 111 C-1.65388672 109.27716797 -1.65388672 109.27716797 -1.30078125 107.51953125 C2.13936052 90.91609413 6.33719 74.21022895 21 64 C30.92887282 58.18521151 42.73170156 55.74702301 54 54 C50.58134024 52.7888806 47.16833319 51.7667944 43.64453125 50.921875 C30.09530175 47.66436556 17.23776488 43.91881625 9.41796875 31.484375 C4.37995748 22.14811108 0 10.68092082 0 0 Z " fill="#5145E5" transform="translate(57,5)"/>
<path d="M0 0 C16.17 0 32.34 0 49 0 C47.28040922 13.75672622 43.19140801 29.6471958 32.625 39.375 C26.76418977 43.9038079 20.33560595 46.34310108 13.375 48.75 C12.74142578 48.97308838 12.10785156 49.19617676 11.45507812 49.42602539 C7.26131859 50.81901527 4.60557329 51 0 51 C0 34.17 0 17.34 0 0 Z " fill="#5044E5" transform="translate(5,5)"/>
<path d="M0 0 C25.23076923 0 25.23076923 0 32.0625 5.4375 C34.83865403 9.26071558 34.5156689 13.54065777 34.46875 18.09765625 C33.93966867 21.37355149 32.94262163 23.32889526 31 26 C30.34 26.33 29.68 26.66 29 27 C29.763125 27.391875 30.52625 27.78375 31.3125 28.1875 C34.3673457 30.24774477 35.38702 31.71361135 37 35 C37.3984375 37.9375 37.3984375 37.9375 37.375 41 C37.38660156 42.5159375 37.38660156 42.5159375 37.3984375 44.0625 C36.79157168 48.53664804 34.92274149 51.12713643 31.6875 54.1875 C21.82374389 60.83980063 12.47397164 58 0 58 C0 38.86 0 19.72 0 0 Z " fill="#030303" transform="translate(223,40)"/>
<path d="M0 0 C2.71333735 1.23333516 4.88116453 2.88116453 7 5 C7.33 3.68 7.66 2.36 8 1 C10.64 1 13.28 1 16 1 C16.1272904 7.5468254 16.21455591 14.09332902 16.2746582 20.64111328 C16.29972607 22.86616949 16.33378944 25.09114398 16.37719727 27.31591797 C16.43818809 30.52331765 16.46628784 33.72962407 16.48828125 36.9375 C16.51408768 37.92427734 16.5398941 38.91105469 16.56648254 39.92773438 C16.56914647 46.5609779 15.260334 50.85651555 11 56 C6.56693953 60.04190808 2.48176154 60.18096155 -3.375 60.25 C-4.68210937 60.27578125 -5.98921875 60.3015625 -7.3359375 60.328125 C-11.12127454 59.98913959 -12.97344322 59.22025401 -16 57 C-15.25 54.0625 -15.25 54.0625 -14 51 C-9.8525057 49.29332993 -5.16185793 50.07354367 -0.77734375 50.2578125 C2.00851481 50.2472904 2.00851481 50.2472904 3.80859375 48.6171875 C5.81822566 45.88935926 6.116263 44.20830597 6.0625 40.875 C6.041875 39.59625 6.02125 38.3175 6 37 C5.401875 37.825 4.80375 38.65 4.1875 39.5 C1.50698771 42.1881709 -0.69718268 42.4452966 -4.4375 42.5625 C-9.37717743 42.3035653 -12.36153311 41.54972379 -16 38 C-21.63283936 31.29003462 -20.6852243 22.21423204 -20 14 C-18.88562065 7.78342098 -16.03505071 4.53524837 -11 1 C-7.53565392 -0.73217304 -3.78761864 -0.48298493 0 0 Z " fill="#040404" transform="translate(353,56)"/>
<path d="M0 0 C5.48686432 5.2125211 8.58389351 9.06050249 8.79223633 16.92285156 C8.85956083 24.03167005 8.73876812 29.41781238 4.5 35.375 C-0.00615806 39.88115806 -4.72221627 41.44523653 -11 41.6875 C-16.00830257 41.5364959 -19.42546006 40.34506671 -23.12890625 36.828125 C-28.8288856 30.61995472 -30.04713764 24.81666493 -29.87109375 16.48046875 C-29.16699553 10.58827837 -26.94701803 5.93167214 -22.84375 1.64453125 C-16.33041127 -3.28187113 -7.22757618 -3.35566037 0 0 Z " fill="#070707" transform="translate(316.5,57.625)"/>
<path d="M0 0 C9.9 0 19.8 0 30 0 C30 2.97 30 5.94 30 9 C23.4 9 16.8 9 10 9 C10 13.62 10 18.24 10 23 C15.28 23 20.56 23 26 23 C26 25.97 26 28.94 26 32 C20.72 32 15.44 32 10 32 C10 37.61 10 43.22 10 49 C17.26 49 24.52 49 32 49 C32 51.97 32 54.94 32 58 C21.44 58 10.88 58 0 58 C0 38.86 0 19.72 0 0 Z " fill="#060606" transform="translate(141,40)"/>
<path d="M0 0 C3.96 0 7.92 0 12 0 C13.98 4.29 15.96 8.58 18 13 C20.31 8.71 22.62 4.42 25 0 C28.63 0 32.26 0 36 0 C35.44570312 1.09699219 34.89140625 2.19398437 34.3203125 3.32421875 C33.58843442 4.77859187 32.85666955 6.23302196 32.125 7.6875 C31.76019531 8.40873047 31.39539063 9.12996094 31.01953125 9.87304688 C30.66503906 10.57880859 30.31054688 11.28457031 29.9453125 12.01171875 C29.62062988 12.65584717 29.29594727 13.29997559 28.96142578 13.96362305 C28.64415527 14.63562744 28.32688477 15.30763184 28 16 C27.58427734 16.81218994 27.16855469 17.62437988 26.74023438 18.46118164 C25.74461487 20.97093685 25.74461487 20.97093685 26.78271484 23.29589844 C27.48968506 24.44106934 27.48968506 24.44106934 28.2109375 25.609375 C28.96503906 26.86427734 28.96503906 26.86427734 29.734375 28.14453125 C30.27578125 29.00433594 30.8171875 29.86414063 31.375 30.75 C32.42568446 32.47322402 33.47522882 34.19714388 34.5234375 35.921875 C34.99700684 36.68081055 35.47057617 37.43974609 35.95849609 38.22167969 C37 40 37 40 37 41 C33.04 41 29.08 41 25 41 C22.69 36.71 20.38 32.42 18 28 C16.21178226 30.68232661 14.79857396 33.30288961 13.375 36.1875 C12.59125 37.775625 11.8075 39.36375 11 41 C7.37 41 3.74 41 0 41 C1.99210808 36.01972981 4.51060602 31.72054742 7.4296875 27.25976562 C9.2673886 24.23549134 10.0935057 22.55024508 9.4921875 19.01171875 C7.75210977 15.49967704 5.88998448 12.11068083 3.875 8.75 C0 2.26038062 0 2.26038062 0 0 Z " fill="#060606" transform="translate(178,57)"/>
<path d="M0 0 C3.3 0 6.6 0 10 0 C10 20.79 10 41.58 10 63 C6.7 63 3.4 63 0 63 C0 42.21 0 21.42 0 0 Z " fill="#010101" transform="translate(269,35)"/>
<path d="M0 0 C1.54097286 2.93260034 2.69624592 5.88398861 3.8125 9 C5.54230225 13.2836194 6.81603797 15.72610759 11 18 C14.29679888 19.15970345 17.61531961 20.13247027 21 21 C18.2782338 22.8145108 16.68734363 23.43476859 13.625 24.25 C9.11682381 25.73564897 6.23724067 27.74485598 4 32 C2.78600754 35.28810105 1.82759522 38.5954213 1 42 C-1.78195334 39.21804666 -2.09289724 36.26360751 -3.0234375 32.5078125 C-4.22177604 29.43047913 -5.40003948 28.03969967 -8 26 C-11.24358622 24.66872681 -11.24358622 24.66872681 -14.75 23.75 C-16.50570312 23.24726562 -16.50570312 23.24726562 -18.296875 22.734375 C-19.18890625 22.49203125 -20.0809375 22.2496875 -21 22 C-18.1184733 20.0789822 -16.41336716 19.52961288 -13.125 18.75 C-9.18525205 17.58011851 -6.45244324 16.44197743 -3.9609375 12.9609375 C-1.95358596 8.86463476 -0.9710123 4.4366578 0 0 Z " fill="#F8F7FD" transform="translate(92,81)"/>
<path d="M0 0 C3.1875 0.3125 3.1875 0.3125 5.5 2.1875 C8.46205267 5.91749225 8.43409996 9.01639046 8.5 13.625 C8.53738281 14.94113281 8.57476562 16.25726563 8.61328125 17.61328125 C8.12699695 21.83815491 7.29488384 23.45501066 4.1875 26.3125 C1.19463118 27.23735966 -0.60223401 26.77110943 -3.8125 26.3125 C-6.76226929 23.5530384 -7.69799031 20.61340516 -8.05078125 16.60546875 C-8.20511647 10.14775808 -8.18330754 6.21310239 -3.8125 1.3125 C-2.8125 0.3125 -2.8125 0.3125 0 0 Z " fill="#F6F6F6" transform="translate(305.8125,63.6875)"/>
<path d="M0 0 C3.65399371 2.84199511 4.79315629 4.47476926 5.41796875 9.08203125 C5.56250471 15.10436282 5.48606354 19.9800685 2 25 C1 26 1 26 -2.3125 26.375 C-6 26 -6 26 -8.375 23.625 C-11.58913227 18.43294018 -11.48551012 14.03906446 -11 8 C-8.97587623 2.50594976 -6.29262424 -1.19859509 0 0 Z " fill="#F5F5F5" transform="translate(354,64)"/>
<path d="M0 0 C9.89458128 -0.47684729 9.89458128 -0.47684729 14.1875 1.375 C16.59362723 4.85973599 16.56015614 7.50383481 16.56640625 11.66015625 C16 14 16 14 14.15234375 15.74609375 C9.0373946 18.72594616 6.71087586 18 0 18 C0 12.06 0 6.12 0 0 Z " fill="#F5F5F5" transform="translate(233,72)"/>
<path d="M0 0 C8 0 8 0 11.5 1.5 C14 4 14 4 14.6875 7.9375 C14.41474318 11.10978042 13.87039798 12.20067409 12.0625 15 C7.77520667 17.79986503 5.05358898 17.37713351 0 17 C0 11.39 0 5.78 0 0 Z " fill="#EFEFEF" transform="translate(233,48)"/>
<path d="M0 0 C1.875 1.125 1.875 1.125 3 3 C3.38976435 6.11811483 3.50422245 8.11019567 1.9375 10.875 C-1.06732099 12.61973477 -3.60810131 12.30835443 -7 12 C-9.32528287 9.67471713 -9.29511025 9.15334102 -9.3125 6 C-9.32925781 5.29875 -9.34601563 4.5975 -9.36328125 3.875 C-9.24339844 3.25625 -9.12351562 2.6375 -9 2 C-5.53076119 -0.31282587 -4.07794425 -0.42478586 0 0 Z " fill="#5347E5" transform="translate(380,21)"/>
</svg>
